# xmcd
# Track frame offsets:
# 149
# 11191
# 26381
# 35781
# 45146
# 53219
# 62146
# 71529
# 81319
# 90244
# 101931
# 112891
# 122889
# 131999
#
# Disc length: 1907 seconds
# Revision: 0
# Processed by: cddbd v1.4PL0 Copyright (c) Steve Scherf et al.
# Submitted via: VisiTrax 2.9.5.181 - For more info visit www.synapsa.com
#
DISCID=bc07720e
DTITLE=Various Artist - Stars of the Steel Guitar
DYEAR=1992
DGENRE=Steel Guitar
TTITLE0=Pete Drake and His Talking Steel Guitar - Abilene
TTITLE1=Buddy Emmons - Sunday in Dixie
TTITLE2=Jimmy Day - Road Stop
TTITLE3=Leon McAuliff and the Cimaron Boys - Columbus Stockade
TTITLE4=Jimmy Day - Rancher's Stomp
TTITLE5="Little" Roy Wiggens - Honolulu Nights
TTITLE6=Walter Haynes - Gear Shiftin'
TTITLE7=Pete Drake - Pedal Jumpin'
TTITLE8=Shot Jackson - Fort Worth Drag
TTITLE9=Ralph Mooney with Johnny and Jonie Mosby - I'll Leave the Front Door Ope
TTITLE9=n
TTITLE10=Jerry Byrd - Hilo Steel Guitar
TTITLE11=Walter Haynes - High Boots
TTITLE12=Pete Drake - Penguin Strut
TTITLE13=Cecil Campbell - Twistin' the Steel
EXTD=Rerelease of earlier Starday LP
EXTT0=
EXTT1=
EXTT2=
EXTT3=
EXTT4=
EXTT5=
EXTT6=
EXTT7=
EXTT8=
EXTT9=
EXTT10=
EXTT11=
EXTT12=
EXTT13=
PLAYORDER=
